<svg width="22" height="15" viewBox="0 0 22 15" fill="none" xmlns="http://www.w3.org/2000/svg">
<path d="M17.1615 4.94241L18.9754 2.23749C19.1565 1.97162 19.0768 1.61789 18.8224 1.43763C18.5566 1.25656 18.2037 1.32471 18.0226 1.59059L16.1708 4.33928C13.4508 2.90729 10.01 2.65508 7.09324 3.70452L5.64202 0.724852C5.49971 0.436368 5.14816 0.31895 4.87123 0.462062C4.58274 0.604367 4.46613 0.94437 4.60844 1.23285L6.02821 4.16389C2.89196 5.69702 0.653648 8.6624 0.048504 12.1714C0.0256487 12.3323 0.0605456 12.4972 0.167153 12.6323C0.27376 12.7674 0.419046 12.8472 0.580733 12.8585L21.3691 14.3122C21.5307 14.3235 21.6973 14.2655 21.8101 14.1457C21.9229 14.0259 21.992 13.8683 21.9917 13.7058C21.88 10.1583 20.0762 6.91026 17.1846 4.94402L17.1615 4.94241ZM6.43099 9.85556C5.94593 9.82165 5.58071 9.40151 5.61463 8.91645C5.64855 8.43139 6.06788 8.07772 6.55294 8.11164C7.038 8.14556 7.39166 8.56488 7.35855 9.03839C7.32544 9.5119 6.90451 9.88868 6.43099 9.85556ZM15.9705 10.5226C15.4855 10.4887 15.1318 10.0694 15.1657 9.58432C15.1997 9.09926 15.619 8.7456 16.0925 8.77871C16.566 8.81182 16.9428 9.23276 16.9097 9.70627C16.8765 10.1798 16.4556 10.5566 15.9705 10.5226Z" fill="white"/>
</svg>
