<svg width="18" height="21" viewBox="0 0 18 21" fill="none" xmlns="http://www.w3.org/2000/svg">
<path d="M14.0431 10.8865C14.0493 10.9752 14.0786 13.6254 17.0573 14.7878C16.6287 16.4671 15.0429 20.2443 12.8931 20.417C11.651 20.5038 10.8632 19.7565 9.46593 19.8543C8.06862 19.952 7.28009 20.7872 6.17267 20.8869C4.04809 21.1023 1.72683 17.2305 1.04726 15.6399C0.538994 14.4273 0.243789 13.2333 0.162365 12.0688C-0.113703 8.12089 2.36699 5.98608 4.83768 5.77988C6.03538 5.69613 7.61595 6.46599 8.27024 6.42023C8.90236 6.37603 10.5373 5.21415 12.1206 5.22602C13.7822 5.24356 15.0922 5.80946 16.0077 6.94899C14.5852 7.96227 13.9394 9.24441 14.0653 10.8849L14.0431 10.8865ZM11.0583 3.74016C12.1773 2.21319 11.9741 0.901256 11.8972 0.438588C10.8261 0.580348 9.63064 1.33258 8.97828 2.20285C8.26404 3.14431 7.87427 4.2637 8.06015 5.48768C9.23078 5.49497 10.2535 4.82168 11.0472 3.74093L11.0583 3.74016Z" fill="#060406"/>
</svg>
