<svg width="16" height="17" viewBox="0 0 16 17" fill="none" xmlns="http://www.w3.org/2000/svg">
<path d="M7.00195 1.5625C7.00195 1.01022 7.44967 0.5625 8.00195 0.5625C8.55424 0.5625 9.00195 1.01022 9.00195 1.5625V15.5625C9.00195 16.1148 8.55424 16.5625 8.00195 16.5625C7.44967 16.5625 7.00195 16.1148 7.00195 15.5625L7.00195 1.5625Z" fill="black"/>
<path d="M0.00195313 8.5625C0.00195313 8.01022 0.449668 7.5625 1.00195 7.5625L15.002 7.5625C15.5542 7.5625 16.002 8.01022 16.002 8.5625C16.002 9.11478 15.5542 9.5625 15.002 9.5625H1.00195C0.449668 9.5625 0.00195313 9.11478 0.00195313 8.5625Z" fill="black"/>
</svg>
