<svg width="10" height="10" viewBox="0 0 10 10" fill="none" xmlns="http://www.w3.org/2000/svg">
<path d="M2.32422 8.97656C2.16406 8.85547 2.12891 8.65625 2.22656 8.37109L3.04297 5.94141L0.957031 4.44141C0.714844 4.26953 0.613281 4.08984 0.679688 3.89453C0.742188 3.70703 0.925781 3.61328 1.22656 3.61719L3.78516 3.63281L4.5625 1.19141C4.65625 0.902344 4.79688 0.757812 4.99609 0.757812C5.19922 0.757812 5.33984 0.902344 5.43359 1.19141L6.21094 3.63281L8.76953 3.61719C9.07031 3.61328 9.25391 3.70703 9.31641 3.89453C9.37891 4.08984 9.28125 4.26953 9.03906 4.44141L6.95312 5.94141L7.76953 8.37109C7.86719 8.65625 7.83203 8.85547 7.67188 8.97656C7.50781 9.10156 7.30859 9.05859 7.06641 8.88281L4.99609 7.36328L2.92969 8.88281C2.6875 9.05859 2.48438 9.10156 2.32422 8.97656Z" fill="#EDC52E"/>
</svg>
