<svg width="64" height="64" viewBox="0 0 64 64" fill="none" xmlns="http://www.w3.org/2000/svg">
<rect width="64" height="64" rx="12" fill="#0046FF"/>
<g clip-path="url(#clip0_531_12259)">
<path d="M33.2095 45.0921L33.2184 45.3148C33.4657 45.317 33.7129 45.4284 33.8956 45.6178C34.0849 45.8138 34.1896 46.0744 34.1852 46.3328C34.174 46.8607 33.7441 47.2728 33.2073 47.2728C33.1939 47.2728 33.1783 47.2728 33.165 47.2728C32.6348 47.2505 32.2205 46.8273 32.2228 46.3083C32.225 45.7804 32.6861 45.3148 33.2095 45.3148V45.0921ZM33.2095 45.0921C32.5613 45.0921 32 45.6534 32 46.306C31.9978 46.9476 32.5056 47.4688 33.1561 47.4933C33.1739 47.4933 33.1895 47.4955 33.2073 47.4955C33.8644 47.4955 34.3923 46.9921 34.4079 46.3372C34.4235 45.6801 33.8689 45.0988 33.2207 45.0898C33.2184 45.0921 33.214 45.0921 33.2095 45.0921Z" fill="black"/>
<path d="M40.8679 32.75V34.0731H34.3837V36.4922H40.0727V37.7529H34.3837V41.6309H32.1562V32.75H40.8679Z" fill="black"/>
<path d="M53.7291 40.5352V48.9506H51.5707L46.0109 42.7582V48.9506H44.0352V40.5352H46.2292L51.7222 46.7409V40.5352H53.7291Z" fill="black"/>
<path d="M33.9847 52.3565C33.9646 52.5926 33.8689 52.7797 33.6951 52.9201C33.5236 53.0604 33.3008 53.1317 33.0269 53.1317C32.715 53.1317 32.4678 53.0404 32.2807 52.8577C32.0936 52.675 32 52.43 32 52.1271C32 51.9444 32.0401 51.7774 32.1203 51.6281C32.2005 51.4789 32.3208 51.3564 32.4811 51.2651C32.6415 51.1737 32.8308 51.127 33.0469 51.127C33.2786 51.127 33.4813 51.1826 33.655 51.2962C33.8288 51.4076 33.9312 51.5702 33.9669 51.7818H33.5837C33.557 51.6682 33.4946 51.5769 33.3989 51.5123C33.3031 51.4477 33.1828 51.4143 33.0402 51.4143C32.8932 51.4143 32.7707 51.4499 32.6682 51.5212C32.5658 51.5925 32.4945 51.6816 32.4522 51.7863C32.4099 51.891 32.3898 52.0068 32.3898 52.1293C32.3898 52.2229 32.4009 52.312 32.4277 52.3944C32.4522 52.4768 32.49 52.5525 32.539 52.6216C32.5881 52.6906 32.6571 52.7463 32.7417 52.7864C32.8264 52.8287 32.9266 52.8488 33.0402 52.8488C33.3677 52.8488 33.5548 52.6862 33.6016 52.3587H33.9847V52.3565Z" fill="black"/>
<path d="M35.4297 51.123C35.7415 51.123 35.9932 51.2166 36.187 51.4015C36.3808 51.5864 36.4788 51.8292 36.4788 52.1276C36.4788 52.4261 36.3808 52.6689 36.1848 52.8538C35.9888 53.0387 35.7349 53.1322 35.423 53.1322C35.1089 53.1322 34.8528 53.0409 34.659 52.8538C34.4652 52.6689 34.3672 52.4261 34.3672 52.1254C34.3672 51.8336 34.463 51.5953 34.6523 51.4037C34.8439 51.2166 35.1023 51.123 35.4297 51.123ZM35.423 51.4059C35.2203 51.4059 35.0599 51.4705 34.9374 51.602C34.8149 51.7334 34.7548 51.9071 34.7548 52.1232C34.7548 52.3459 34.8149 52.5219 34.9352 52.6533C35.0555 52.7847 35.2203 52.8493 35.4275 52.8493C35.6279 52.8493 35.7861 52.7825 35.9086 52.6511C36.0289 52.5197 36.089 52.3437 36.089 52.1254C36.089 51.9071 36.0289 51.7311 35.9086 51.602C35.7883 51.4705 35.6257 51.4059 35.423 51.4059Z" fill="black"/>
<path d="M38.4979 51.166V51.4534H37.3641V51.9746H38.3598V52.2463H37.3641V53.0861H36.9766V51.166H38.4979Z" fill="black"/>
<path d="M40.4455 51.166V51.4534H39.3117V51.9746H40.3051V52.2463H39.3117V53.0861H38.9219V51.166H40.4455Z" fill="black"/>
<path d="M42.4548 51.166V51.4489H41.2542V51.959H42.368V52.2307H41.2542V52.7965H42.4726V53.0861H40.8711V51.166H42.4548Z" fill="black"/>
<path d="M44.5447 51.166V51.4489H43.3441V51.959H44.4578V52.2307H43.3441V52.7965H44.5625V53.0861H42.9609V51.166H44.5447Z" fill="black"/>
<path d="M32.1562 54.5371H33.5083C33.7779 54.5371 33.9984 54.5817 34.1677 54.6708C34.3392 54.7599 34.4238 54.898 34.4238 55.0806C34.4238 55.192 34.386 55.29 34.3102 55.3724C34.2345 55.4571 34.1276 55.515 33.9939 55.5506C34.2278 55.584 34.3614 55.7333 34.3949 55.9983C34.3949 56.0072 34.3971 56.0362 34.4038 56.083C34.4082 56.1298 34.4127 56.1676 34.4194 56.1944C34.426 56.2211 34.4305 56.2567 34.4394 56.2946C34.4483 56.3347 34.4595 56.3681 34.4728 56.3948C34.4884 56.4216 34.5062 56.4416 34.5263 56.455H33.9048C33.8848 56.426 33.8692 56.3904 33.858 56.3458C33.8469 56.3013 33.838 56.2456 33.8313 56.1765C33.8246 56.1075 33.8202 56.0696 33.8202 56.0629C33.8001 55.9271 33.7511 55.8357 33.6776 55.7823C33.6019 55.731 33.4705 55.7043 33.2789 55.7043H32.7488V56.4572H32.1562V54.5371ZM32.7488 54.869V55.3991H33.3145C33.4794 55.3991 33.6086 55.3813 33.7021 55.3435C33.7957 55.3056 33.8424 55.2343 33.8424 55.1274C33.8424 55.0272 33.7979 54.9581 33.7066 54.9225C33.6152 54.8868 33.4927 54.869 33.3413 54.869H32.7488Z" fill="black"/>
<path d="M36.289 54.4902C36.6855 54.4902 37.0063 54.5838 37.2535 54.7687C37.4985 54.9535 37.6211 55.1986 37.6211 55.4971C37.6211 55.7978 37.4985 56.0383 37.2535 56.2232C37.0085 56.4081 36.6855 56.4994 36.2846 56.4994C35.8814 56.4994 35.5584 56.4081 35.3112 56.2232C35.0639 56.0383 34.9414 55.7978 34.9414 55.4971C34.9414 55.1941 35.0639 54.9491 35.3089 54.7642C35.554 54.5816 35.8814 54.4902 36.289 54.4902ZM36.2801 54.8355C36.0551 54.8355 35.8769 54.8956 35.7433 55.0137C35.6096 55.1317 35.5428 55.2921 35.5428 55.4904C35.5428 55.6975 35.6096 55.8579 35.7411 55.976C35.8725 56.094 36.0551 56.1519 36.2868 56.1542C36.514 56.1542 36.6922 56.094 36.8214 55.976C36.9506 55.8579 37.0152 55.6953 37.0152 55.4904C37.0152 55.2899 36.9484 55.1295 36.8169 55.0115C36.6855 54.8934 36.5073 54.8355 36.2801 54.8355Z" fill="black"/>
<path d="M39.482 54.5332L40.5178 56.4555H39.8919L39.6781 56.0278H38.6668L38.4463 56.4555H37.8359L38.8717 54.5332H39.482ZM39.531 55.7204L39.1724 55.0077L38.8093 55.7204H39.531Z" fill="black"/>
<path d="M42.9474 55.1067H42.3816C42.3594 54.9174 42.1879 54.8216 41.8649 54.8216C41.7268 54.8216 41.6198 54.8416 41.5419 54.8795C41.4639 54.9174 41.4261 54.9708 41.4261 55.0399C41.4261 55.0621 41.4305 55.0844 41.4416 55.1022C41.4528 55.1201 41.4706 55.1357 41.4996 55.1512C41.5285 55.1668 41.5552 55.1802 41.5842 55.1891C41.6132 55.198 41.6533 55.2092 41.7089 55.2225C41.7646 55.2337 41.8136 55.2448 41.8582 55.2537C41.9027 55.2626 41.9651 55.2738 42.0475 55.2893C42.1299 55.3027 42.2012 55.3183 42.2614 55.3294C42.5287 55.3829 42.7269 55.4497 42.8583 55.5321C42.9897 55.6123 43.0543 55.7282 43.0543 55.8796C43.0543 55.9888 43.0232 56.0846 42.9586 56.167C42.894 56.2494 42.8093 56.314 42.7002 56.3608C42.591 56.4075 42.473 56.4432 42.346 56.4655C42.2168 56.4877 42.0809 56.4989 41.9361 56.4989C41.5664 56.4989 41.279 56.4387 41.0719 56.3184C40.8647 56.1982 40.76 56.0311 40.7578 55.8128H41.3503C41.3615 56.0534 41.5642 56.1737 41.9651 56.1737C42.121 56.1737 42.2435 56.1514 42.3326 56.1046C42.424 56.0578 42.4685 55.9955 42.4685 55.9175C42.4685 55.8507 42.4284 55.8039 42.3438 55.7727C42.2614 55.7415 42.0876 55.6992 41.8225 55.6457C41.807 55.6435 41.7958 55.6413 41.7891 55.6413C41.7825 55.6391 41.7713 55.6368 41.7579 55.6346C41.7446 55.6324 41.7334 55.6302 41.7223 55.6279C41.631 55.6101 41.5664 55.5967 41.5307 55.5878C41.4951 55.5789 41.4394 55.5656 41.3615 55.5455C41.2835 55.5255 41.2278 55.5076 41.1922 55.492C41.1565 55.4765 41.112 55.4542 41.0607 55.4252C41.0073 55.3963 40.9716 55.3673 40.9471 55.3339C40.9249 55.3027 40.9026 55.2648 40.8848 55.2181C40.8647 55.1713 40.8558 55.1223 40.8558 55.0688C40.8558 54.8951 40.9516 54.7548 41.1432 54.6501C41.3347 54.5454 41.5864 54.4941 41.9027 54.4941C42.2079 54.4941 42.4574 54.5454 42.6512 54.6456C42.8427 54.7481 42.943 54.9018 42.9474 55.1067Z" fill="black"/>
<path d="M45.6226 54.5371V54.8957H44.8073V56.455H44.2081V54.8957H43.3906V54.5371H45.6226Z" fill="black"/>
<path d="M48.1553 54.5371V54.8824H46.7097V55.2989H48.0373V55.6308H46.7097V56.103H48.1821V56.455H46.1172V54.5371H48.1553Z" fill="black"/>
<path d="M48.8203 54.5371H50.1724C50.4419 54.5371 50.6624 54.5817 50.8317 54.6708C51.0032 54.7599 51.0879 54.898 51.0879 55.0806C51.0879 55.192 51.05 55.29 50.9743 55.3724C50.8985 55.4571 50.7916 55.515 50.658 55.5506C50.8919 55.584 51.0255 55.7333 51.0589 55.9983C51.0589 56.0072 51.0612 56.0362 51.0678 56.083C51.0723 56.1298 51.0767 56.1676 51.0834 56.1944C51.0901 56.2211 51.0946 56.2567 51.1035 56.2946C51.1124 56.3347 51.1235 56.3681 51.1369 56.3948C51.1525 56.4216 51.1703 56.4416 51.1903 56.455H50.5711C50.5511 56.426 50.5355 56.3904 50.5243 56.3458C50.5132 56.3013 50.5043 56.2456 50.4976 56.1765C50.4909 56.1075 50.4865 56.0696 50.4865 56.0629C50.4664 55.9271 50.4174 55.8357 50.3439 55.7823C50.2682 55.731 50.1368 55.7043 49.9452 55.7043H49.415V56.4572H48.8225V54.5371H48.8203ZM49.4106 54.869V55.3991H49.9764C50.1412 55.3991 50.2704 55.3813 50.364 55.3435C50.4575 55.3056 50.5043 55.2343 50.5043 55.1274C50.5043 55.0272 50.4597 54.9581 50.3684 54.9225C50.2771 54.8868 50.1568 54.869 50.0031 54.869H49.4106Z" fill="black"/>
<path d="M53.6232 55.1067H53.0574C53.0351 54.9174 52.8636 54.8216 52.5406 54.8216C52.4025 54.8216 52.2956 54.8416 52.2177 54.8795C52.1397 54.9174 52.1018 54.9708 52.1018 55.0399C52.1018 55.0621 52.1063 55.0844 52.1174 55.1022C52.1286 55.1201 52.1464 55.1357 52.1753 55.1512C52.2043 55.1668 52.231 55.1802 52.26 55.1891C52.2889 55.198 52.329 55.2092 52.3847 55.2225C52.4404 55.2337 52.4894 55.2448 52.534 55.2537C52.5785 55.2626 52.6409 55.2738 52.7233 55.2893C52.8057 55.3027 52.877 55.3183 52.9371 55.3294C53.2044 55.3829 53.4027 55.4497 53.5341 55.5321C53.6655 55.6123 53.7301 55.7282 53.7301 55.8796C53.7301 55.9888 53.6989 56.0846 53.6343 56.167C53.5697 56.2494 53.4851 56.314 53.376 56.3608C53.2668 56.4075 53.1487 56.4432 53.0218 56.4655C52.8926 56.4877 52.7567 56.4989 52.6119 56.4989C52.2422 56.4989 51.9548 56.4387 51.7477 56.3184C51.5405 56.1982 51.4358 56.0311 51.4336 55.8128H52.0261C52.0372 56.0534 52.2422 56.1737 52.6409 56.1737C52.7968 56.1737 52.9193 56.1514 53.0084 56.1046C53.0997 56.0578 53.1443 55.9955 53.1443 55.9175C53.1443 55.8507 53.1042 55.8039 53.0196 55.7727C52.9371 55.7415 52.7634 55.6992 52.4983 55.6457C52.4827 55.6435 52.4716 55.6413 52.4649 55.6413C52.4582 55.6391 52.4471 55.6368 52.4337 55.6346C52.4204 55.6324 52.4092 55.6302 52.3981 55.6279C52.3068 55.6101 52.2422 55.5967 52.2065 55.5878C52.1709 55.5789 52.1152 55.5656 52.0372 55.5455C51.9593 55.5255 51.9036 55.5076 51.868 55.492C51.8323 55.4765 51.7878 55.4542 51.7365 55.4252C51.6831 55.3963 51.6474 55.3673 51.6229 55.3339C51.6007 55.3027 51.5784 55.2648 51.5606 55.2181C51.5405 55.1713 51.5316 55.1223 51.5316 55.0688C51.5316 54.8951 51.6274 54.7548 51.8189 54.6501C52.0105 54.5454 52.2622 54.4941 52.5785 54.4941C52.8837 54.4941 53.1332 54.5454 53.3269 54.6456C53.5185 54.7481 53.6187 54.9018 53.6232 55.1067Z" fill="black"/>
<path d="M46.481 34.6196H46.1112L46.2449 34.1273H45.9219V33.9113H46.3028L46.3963 33.5504H46.0778V33.3321H46.4565L46.5901 32.8398H46.9599L46.8262 33.3321H47.2227L47.3564 32.8398H47.7261L47.5925 33.3321H47.9155V33.5504H47.5346L47.441 33.9113H47.7618V34.1273H47.3831L47.2494 34.6196H46.8797L47.0133 34.1273H46.6146L46.481 34.6196ZM47.069 33.9113L47.1626 33.5504H46.7661L46.6725 33.9113H47.069Z" fill="black"/>
<path d="M49.5933 32.75C49.972 32.75 50.2771 32.8391 50.511 33.0151C50.7449 33.191 50.8607 33.4227 50.8607 33.7078C50.8607 33.9929 50.7449 34.2246 50.511 34.3983C50.2771 34.5743 49.9697 34.6612 49.5911 34.6612C49.2079 34.6612 48.9006 34.5743 48.6644 34.3983C48.4306 34.2224 48.3125 33.9929 48.3125 33.7078C48.3125 33.4182 48.4283 33.1866 48.6622 33.0106C48.8939 32.8369 49.2035 32.75 49.5933 32.75ZM49.5844 33.0774C49.3706 33.0774 49.2013 33.1331 49.0743 33.2467C48.9473 33.3603 48.8827 33.5096 48.8827 33.7011C48.8827 33.8971 48.9451 34.0508 49.0721 34.1622C49.199 34.2736 49.3705 34.3293 49.5911 34.3315C49.8071 34.3315 49.9764 34.2758 50.0989 34.1622C50.2237 34.0486 50.2838 33.8949 50.2838 33.7011C50.2838 33.5096 50.2214 33.3581 50.0945 33.2467C49.972 33.1331 49.8005 33.0774 49.5844 33.0774Z" fill="black"/>
<path d="M51.4297 34.6195V32.793H52.4766C52.8775 32.793 53.1872 32.8709 53.4055 33.0291C53.6215 33.1872 53.7307 33.4122 53.7307 33.7062C53.7307 34.0003 53.6215 34.2252 53.4055 34.3834C53.1894 34.5415 52.8798 34.6195 52.4766 34.6195H51.4297ZM51.9932 34.2854H52.4075C52.9087 34.2854 53.1604 34.0916 53.1604 33.7062C53.1604 33.5191 53.0981 33.3766 52.9733 33.2763C52.8486 33.1761 52.6615 33.1271 52.4075 33.1271H51.9932V34.2854Z" fill="black"/>
</g>
<defs>
<clipPath id="clip0_531_12259">
<rect width="21.729" height="23.7516" fill="white" transform="translate(32 32.75)"/>
</clipPath>
</defs>
</svg>
