<svg width="443" height="901" viewBox="0 0 443 901" fill="none" xmlns="http://www.w3.org/2000/svg">
<path d="M436.286 286.309H440.722C441.192 286.309 441.644 286.496 441.976 286.829C442.309 287.161 442.496 287.613 442.496 288.083V391.435C442.496 391.905 442.309 392.356 441.976 392.689C441.644 393.022 441.192 393.209 440.722 393.209H436.286C435.815 393.209 435.364 393.022 435.031 392.689C434.699 392.356 434.512 391.905 434.512 391.435V288.083C434.512 287.613 434.699 287.161 435.031 286.829C435.364 286.496 435.815 286.309 436.286 286.309V286.309Z" fill="url(#paint0_linear_531_14035)"/>
<path d="M436.285 286.087H440.721C441.25 286.088 441.757 286.298 442.132 286.672C442.506 287.047 442.716 287.554 442.717 288.083V391.434C442.716 391.964 442.506 392.471 442.132 392.845C441.757 393.219 441.25 393.43 440.721 393.431H436.285C435.756 393.43 435.249 393.219 434.874 392.845C434.5 392.471 434.29 391.964 434.289 391.434V288.083C434.29 287.554 434.5 287.047 434.874 286.672C435.249 286.298 435.756 286.088 436.285 286.087ZM440.721 392.987C441.133 392.987 441.527 392.823 441.819 392.532C442.11 392.241 442.273 391.846 442.273 391.434V288.083C442.273 287.671 442.11 287.276 441.819 286.985C441.527 286.694 441.133 286.531 440.721 286.531H436.285C435.873 286.531 435.478 286.694 435.187 286.985C434.896 287.276 434.733 287.671 434.733 288.083V391.434C434.733 391.846 434.896 392.241 435.187 392.532C435.478 392.823 435.873 392.987 436.285 392.987H440.721Z" fill="#362D3A"/>
<path d="M1.8114 174.086H8.02135C8.19699 174.083 8.37149 174.115 8.53441 174.181C8.69732 174.246 8.84532 174.344 8.96954 174.469C9.09376 174.593 9.19166 174.741 9.25738 174.904C9.3231 175.067 9.3553 175.241 9.35205 175.417V206.023C9.3553 206.199 9.3231 206.373 9.25738 206.536C9.19166 206.699 9.09376 206.847 8.96954 206.971C8.84532 207.095 8.69732 207.193 8.53441 207.259C8.37149 207.325 8.19699 207.357 8.02135 207.354H1.8114C1.63575 207.357 1.46126 207.325 1.29834 207.259C1.13542 207.193 0.987428 207.095 0.863207 206.971C0.738987 206.847 0.641088 206.699 0.575365 206.536C0.509641 206.373 0.477442 206.199 0.480692 206.023V175.417C0.477442 175.241 0.509641 175.067 0.575365 174.904C0.641088 174.741 0.738987 174.593 0.863207 174.469C0.987428 174.344 1.13542 174.246 1.29834 174.181C1.46126 174.115 1.63575 174.083 1.8114 174.086Z" fill="url(#paint1_linear_531_14035)"/>
<path d="M1.81049 173.864H8.02044C8.22521 173.861 8.42854 173.899 8.61836 173.976C8.80818 174.053 8.98061 174.167 9.12542 174.312C9.27024 174.457 9.38447 174.629 9.46135 174.819C9.53822 175.009 9.57617 175.212 9.57293 175.417V206.023C9.57617 206.228 9.53822 206.431 9.46135 206.621C9.38447 206.811 9.27024 206.983 9.12542 207.128C8.98061 207.273 8.80818 207.387 8.61836 207.464C8.42854 207.541 8.22521 207.579 8.02044 207.576H1.81049C1.60572 207.579 1.40239 207.541 1.21257 207.464C1.02276 207.387 0.850321 207.273 0.70551 207.128C0.560699 206.983 0.446464 206.811 0.36959 206.621C0.292715 206.431 0.254768 206.228 0.258003 206.023V175.417C0.254768 175.212 0.292715 175.009 0.36959 174.819C0.446464 174.629 0.560699 174.457 0.70551 174.312C0.850321 174.167 1.02276 174.053 1.21257 173.976C1.40239 173.899 1.60572 173.861 1.81049 173.864ZM8.02044 207.132C8.16698 207.135 8.31268 207.109 8.44872 207.054C8.58477 207 8.70835 206.918 8.812 206.815C8.91564 206.711 8.9972 206.587 9.05175 206.451C9.1063 206.315 9.1327 206.17 9.12936 206.023V175.417C9.1327 175.27 9.1063 175.125 9.05175 174.989C8.9972 174.852 8.91564 174.729 8.812 174.625C8.70835 174.522 8.58477 174.44 8.44872 174.386C8.31268 174.331 8.16698 174.305 8.02044 174.308H1.81049C1.66395 174.305 1.51826 174.331 1.38221 174.386C1.24616 174.44 1.12258 174.522 1.01894 174.625C0.915295 174.729 0.833736 174.852 0.779188 174.989C0.72464 175.125 0.698236 175.27 0.701571 175.417V206.023C0.698236 206.17 0.72464 206.315 0.779188 206.451C0.833736 206.587 0.915295 206.711 1.01894 206.815C1.12258 206.918 1.24616 207 1.38221 207.054C1.51826 207.109 1.66395 207.135 1.81049 207.132H8.02044Z" fill="#362D3A"/>
<path d="M2.69812 238.847H8.90807C9.08371 238.844 9.25821 238.876 9.42113 238.942C9.58404 239.007 9.73204 239.105 9.85626 239.23C9.98048 239.354 10.0784 239.502 10.1441 239.665C10.2098 239.828 10.242 240.002 10.2388 240.178V305.382C10.242 305.558 10.2098 305.732 10.1441 305.895C10.0784 306.058 9.98048 306.206 9.85626 306.33C9.73204 306.455 9.58404 306.553 9.42113 306.618C9.25821 306.684 9.08371 306.716 8.90807 306.713H2.69812C2.52247 306.716 2.34797 306.684 2.18506 306.618C2.02214 306.553 1.87415 306.455 1.74993 306.33C1.62571 306.206 1.52781 306.058 1.46208 305.895C1.39636 305.732 1.36416 305.558 1.36741 305.382V240.178C1.36416 240.002 1.39636 239.828 1.46208 239.665C1.52781 239.502 1.62571 239.354 1.74993 239.23C1.87415 239.105 2.02214 239.007 2.18506 238.942C2.34797 238.876 2.52247 238.844 2.69812 238.847Z" fill="url(#paint2_linear_531_14035)"/>
<path d="M2.69721 238.625H8.90716C9.11193 238.622 9.31526 238.66 9.50508 238.737C9.6949 238.814 9.86733 238.928 10.0121 239.073C10.157 239.217 10.2712 239.39 10.3481 239.58C10.4249 239.77 10.4629 239.973 10.4597 240.178V305.382C10.4629 305.587 10.4249 305.79 10.3481 305.98C10.2712 306.17 10.157 306.342 10.0121 306.487C9.86733 306.632 9.6949 306.746 9.50508 306.823C9.31526 306.9 9.11193 306.938 8.90716 306.935H2.69721C2.49244 306.938 2.28911 306.9 2.09929 306.823C1.90947 306.746 1.73704 306.632 1.59223 306.487C1.44742 306.342 1.33318 306.17 1.25631 305.98C1.17943 305.79 1.14149 305.587 1.14472 305.382V240.178C1.14149 239.973 1.17943 239.77 1.25631 239.58C1.33318 239.39 1.44742 239.217 1.59223 239.073C1.73704 238.928 1.90947 238.814 2.09929 238.737C2.28911 238.66 2.49244 238.622 2.69721 238.625ZM8.90716 306.491C9.0537 306.494 9.19939 306.468 9.33544 306.414C9.47149 306.359 9.59507 306.277 9.69871 306.174C9.80236 306.07 9.88392 305.947 9.93847 305.81C9.99301 305.674 10.0194 305.529 10.0161 305.382V240.178C10.0194 240.031 9.99301 239.885 9.93847 239.749C9.88392 239.613 9.80236 239.49 9.69871 239.386C9.59507 239.282 9.47149 239.201 9.33544 239.146C9.19939 239.092 9.0537 239.065 8.90716 239.069H2.69721C2.55067 239.065 2.40498 239.092 2.26893 239.146C2.13288 239.201 2.0093 239.282 1.90566 239.386C1.80201 239.49 1.72045 239.613 1.66591 239.749C1.61136 239.885 1.58495 240.031 1.58829 240.178V305.382C1.58495 305.529 1.61136 305.674 1.66591 305.81C1.72045 305.947 1.80201 306.07 1.90566 306.174C2.0093 306.277 2.13288 306.359 2.26893 306.414C2.40498 306.468 2.55067 306.494 2.69721 306.491H8.90716Z" fill="#362D3A"/>
<path d="M2.69812 325.343H8.90807C9.08371 325.34 9.25821 325.372 9.42113 325.438C9.58404 325.503 9.73204 325.601 9.85626 325.725C9.98048 325.85 10.0784 325.998 10.1441 326.161C10.2098 326.323 10.242 326.498 10.2388 326.674V391.878C10.242 392.054 10.2098 392.228 10.1441 392.391C10.0784 392.554 9.98048 392.702 9.85626 392.826C9.73204 392.951 9.58404 393.048 9.42113 393.114C9.25821 393.18 9.08371 393.212 8.90807 393.209H2.69812C2.52247 393.212 2.34797 393.18 2.18506 393.114C2.02214 393.048 1.87415 392.951 1.74993 392.826C1.62571 392.702 1.52781 392.554 1.46208 392.391C1.39636 392.228 1.36416 392.054 1.36741 391.878V326.674C1.36416 326.498 1.39636 326.323 1.46208 326.161C1.52781 325.998 1.62571 325.85 1.74993 325.725C1.87415 325.601 2.02214 325.503 2.18506 325.438C2.34797 325.372 2.52247 325.34 2.69812 325.343Z" fill="url(#paint3_linear_531_14035)"/>
<path d="M2.69721 325.121H8.90716C9.11193 325.118 9.31526 325.156 9.50508 325.233C9.6949 325.31 9.86733 325.424 10.0121 325.569C10.157 325.713 10.2712 325.886 10.3481 326.076C10.4249 326.265 10.4629 326.469 10.4597 326.674V391.878C10.4629 392.083 10.4249 392.286 10.3481 392.476C10.2712 392.666 10.157 392.838 10.0121 392.983C9.86733 393.128 9.6949 393.242 9.50508 393.319C9.31526 393.396 9.11193 393.434 8.90716 393.431H2.69721C2.49244 393.434 2.28911 393.396 2.09929 393.319C1.90947 393.242 1.73704 393.128 1.59223 392.983C1.44742 392.838 1.33318 392.666 1.25631 392.476C1.17943 392.286 1.14149 392.083 1.14472 391.878V326.674C1.14149 326.469 1.17943 326.265 1.25631 326.076C1.33318 325.886 1.44742 325.713 1.59223 325.569C1.73704 325.424 1.90947 325.31 2.09929 325.233C2.28911 325.156 2.49244 325.118 2.69721 325.121ZM8.90716 392.987C9.0537 392.99 9.19939 392.964 9.33544 392.909C9.47149 392.855 9.59507 392.773 9.69871 392.67C9.80236 392.566 9.88392 392.442 9.93847 392.306C9.99301 392.17 10.0194 392.025 10.0161 391.878V326.674C10.0194 326.527 9.99301 326.381 9.93847 326.245C9.88392 326.109 9.80236 325.986 9.69871 325.882C9.59507 325.778 9.47149 325.697 9.33544 325.642C9.19939 325.588 9.0537 325.561 8.90716 325.565H2.69721C2.55067 325.561 2.40498 325.588 2.26893 325.642C2.13288 325.697 2.0093 325.778 1.90566 325.882C1.80201 325.986 1.72045 326.109 1.66591 326.245C1.61136 326.381 1.58495 326.527 1.58829 326.674V391.878C1.58495 392.025 1.61136 392.17 1.66591 392.306C1.72045 392.442 1.80201 392.566 1.90566 392.67C2.0093 392.773 2.13288 392.855 2.26893 392.909C2.40498 392.964 2.55067 392.99 2.69721 392.987H8.90716Z" fill="#362D3A"/>
<path d="M75.4253 0.650879H368.903C378.278 0.652393 387.56 2.50035 396.221 6.08924C404.881 9.67812 412.75 14.9377 419.377 21.5675C426.005 28.1974 431.262 36.0678 434.848 44.7294C438.434 53.3909 440.279 62.674 440.278 72.0485V829.039C440.279 838.414 438.434 847.697 434.848 856.358C431.262 865.02 426.005 872.89 419.377 879.52C412.75 886.15 404.881 891.409 396.221 894.998C387.56 898.587 378.278 900.435 368.903 900.437H75.4253C66.0508 900.435 56.7683 898.587 48.1079 894.998C39.4475 891.409 31.5789 886.15 24.9511 879.52C18.3234 872.89 13.0664 865.02 9.48031 856.358C5.89422 847.697 4.04927 838.414 4.05078 829.039V72.0485C4.04927 62.674 5.89422 53.3909 9.48031 44.7294C13.0664 36.0678 18.3234 28.1974 24.9511 21.5675C31.5789 14.9377 39.4475 9.67812 48.1079 6.08924C56.7683 2.50035 66.0508 0.652393 75.4253 0.650879V0.650879Z" fill="#B3A8A6"/>
<path d="M75.2211 1.53802C70.4468 1.53684 65.6845 2.01684 61.0065 2.97074C51.9852 4.81819 43.416 8.42394 35.7879 13.5822C24.4489 21.2371 15.5731 32.016 10.2357 44.6129C8.43246 48.8791 7.05601 53.3134 6.1265 57.8508C5.17258 62.5288 4.69258 67.2911 4.69378 72.0654V829.236C4.69258 834.011 5.17258 838.773 6.1265 843.451C7.97405 852.472 11.5799 861.042 16.7384 868.67C24.3931 880.009 35.172 888.885 47.7691 894.223C52.0352 896.026 56.4692 897.403 61.0065 898.332C65.6846 899.286 70.4468 899.765 75.2211 899.764H368.863C373.637 899.765 378.4 899.285 383.078 898.331C392.099 896.483 400.667 892.878 408.295 887.72C419.634 880.065 428.511 869.286 433.848 856.689C435.652 852.423 437.028 847.989 437.958 843.451C438.912 838.773 439.392 834.011 439.39 829.236V72.0654C439.392 67.2911 438.912 62.5288 437.958 57.8508C436.11 48.8294 432.504 40.2602 427.346 32.6322C419.691 21.2926 408.912 12.4163 396.315 7.07863C392.049 5.27585 387.615 3.89985 383.078 2.97074C378.4 2.01684 373.637 1.53684 368.863 1.53802H75.2211ZM75.2211 0.650879H368.863C387.803 0.650879 405.968 8.17488 419.361 21.5677C432.754 34.9605 440.278 53.1251 440.278 72.0654V829.236C440.278 848.177 432.754 866.341 419.361 879.734C405.968 893.127 387.803 900.651 368.863 900.651H75.2211C56.2808 900.651 38.1163 893.127 24.7234 879.734C11.3306 866.341 3.80664 848.177 3.80664 829.236L3.80664 72.0654C3.80664 53.1251 11.3306 34.9605 24.7234 21.5677C38.1163 8.17488 56.2808 0.650879 75.2211 0.650879V0.650879Z" fill="#18121C"/>
<path d="M96.2906 900.651V897.546H77.8825C58.9422 897.546 40.7776 890.022 27.3848 876.629C13.992 863.236 6.46805 845.072 6.46805 826.131V805.505H3.80664V799.296H6.46805V101.563H3.80664V95.3527H6.46805V75.1703C6.46805 56.23 13.992 38.0655 27.3848 24.6727C40.7776 11.2798 58.9422 3.75586 77.8825 3.75586H342.471V0.650879H348.681V3.75586H365.758C384.698 3.75586 402.863 11.2798 416.256 24.6727C429.649 38.0655 437.173 56.23 437.173 75.1703V95.3527H440.278V101.563H437.173V799.296H440.278V805.505H437.173V826.131C437.173 845.072 429.649 863.236 416.256 876.629C402.863 890.022 384.698 897.546 365.758 897.546H102.501V900.651H96.2906Z" fill="#3A3044"/>
<path d="M76.9944 6.41724H366.644C384.408 6.41724 401.445 13.4739 414.005 26.0349C426.566 38.5958 433.623 55.6322 433.623 73.396V827.018C433.623 844.782 426.566 861.819 414.005 874.38C401.445 886.941 384.408 893.997 366.644 893.997H76.9944C59.2305 893.997 42.1942 886.941 29.6333 874.38C17.0723 861.819 10.0156 844.782 10.0156 827.018L10.0156 73.396C10.0156 55.6322 17.0723 38.5958 29.6333 26.0349C42.1942 13.4739 59.2305 6.41724 76.9944 6.41724V6.41724Z" fill="#404040"/>
<path d="M175.91 6.86084H267.285V12.1837H175.91V6.86084Z" fill="#141414"/>
<path d="M366.201 893.111H77.882C73.3481 893.112 68.8258 892.656 64.3834 891.75C55.8158 889.995 47.6776 886.571 40.4333 881.672C29.6649 874.402 21.2356 864.166 16.1666 852.203C14.4537 848.151 13.1461 843.94 12.2632 839.63C11.3572 835.188 10.9013 830.665 10.9023 826.132V73.8397C10.9013 69.3058 11.3572 64.7834 12.2632 60.341C14.0177 51.7734 17.4424 43.6353 22.3415 36.391C29.6111 25.6224 39.8473 17.1931 51.8103 12.1243C55.8621 10.4114 60.0734 9.10387 64.3828 8.22087C68.8254 7.31534 73.348 6.85986 77.882 6.86133H177.998L179.62 8.96162C179.716 9.07074 179.836 9.15707 179.969 9.21438C180.103 9.27169 180.248 9.29854 180.393 9.29297H262.805C262.951 9.29844 263.095 9.27155 263.229 9.21424C263.362 9.15693 263.482 9.07064 263.578 8.96162L265.2 6.86133H366.201C370.735 6.86033 375.257 7.31625 379.7 8.2222C388.267 9.97681 396.406 13.4014 403.65 18.3005C414.418 25.5699 422.848 35.8061 427.917 47.7689C429.629 51.8207 430.937 56.0321 431.82 60.3414C432.726 64.7839 433.182 69.3063 433.181 73.8401V826.132C433.182 830.666 432.726 835.188 431.82 839.631C430.066 848.198 426.641 856.336 421.742 863.581C414.472 874.349 404.236 882.778 392.273 887.847C388.221 889.56 384.01 890.868 379.7 891.751C375.258 892.656 370.735 893.112 366.201 893.111Z" fill="black"/>
<defs>
<linearGradient id="paint0_linear_531_14035" x1="438.504" y1="286.309" x2="438.504" y2="393.209" gradientUnits="userSpaceOnUse">
<stop stop-color="#B7AEAE"/>
<stop offset="0.077" stop-color="#211828"/>
<stop offset="0.499" stop-color="#5F5668"/>
<stop offset="0.913" stop-color="#241B2B"/>
<stop offset="1" stop-color="#AFA6A7"/>
</linearGradient>
<linearGradient id="paint1_linear_531_14035" x1="4.91637" y1="174.086" x2="4.91637" y2="207.354" gradientUnits="userSpaceOnUse">
<stop stop-color="#B7AEAE"/>
<stop offset="0.077" stop-color="#211828"/>
<stop offset="0.499" stop-color="#5F5668"/>
<stop offset="0.913" stop-color="#241B2B"/>
<stop offset="1" stop-color="#AFA6A7"/>
</linearGradient>
<linearGradient id="paint2_linear_531_14035" x1="5.80309" y1="238.847" x2="5.80309" y2="306.713" gradientUnits="userSpaceOnUse">
<stop stop-color="#B7AEAE"/>
<stop offset="0.077" stop-color="#211828"/>
<stop offset="0.499" stop-color="#5F5668"/>
<stop offset="0.913" stop-color="#241B2B"/>
<stop offset="1" stop-color="#AFA6A7"/>
</linearGradient>
<linearGradient id="paint3_linear_531_14035" x1="5.80309" y1="325.343" x2="5.80309" y2="393.209" gradientUnits="userSpaceOnUse">
<stop stop-color="#B7AEAE"/>
<stop offset="0.077" stop-color="#211828"/>
<stop offset="0.499" stop-color="#5F5668"/>
<stop offset="0.913" stop-color="#241B2B"/>
<stop offset="1" stop-color="#AFA6A7"/>
</linearGradient>
</defs>
</svg>
