<svg width="129" height="38" viewBox="0 0 129 38" fill="none" xmlns="http://www.w3.org/2000/svg">
<path d="M19.5763 0.0352783H109.177C114.177 0.0352783 118.972 2.02143 122.507 5.5568C126.042 9.09217 128.029 13.8872 128.029 18.8869C128.029 23.8867 126.042 28.6817 122.507 32.2171C118.972 35.7524 114.177 37.7386 109.177 37.7386H19.5763C14.5765 37.7386 9.7815 35.7524 6.24613 32.2171C2.71076 28.6817 0.724609 23.8867 0.724609 18.8869C0.724609 13.8872 2.71076 9.09217 6.24613 5.5568C9.7815 2.02143 14.5765 0.0352783 19.5763 0.0352783V0.0352783Z" fill="#010101"/>
<path d="M19.5763 1.36598C15.5336 1.36798 11.6159 2.76751 8.48703 5.32745C5.35815 7.88738 3.21048 11.4503 2.40791 15.4125C1.60534 19.3747 2.19724 23.4925 4.0833 27.0683C5.96936 30.644 9.0336 33.4578 12.7568 35.0328C14.9143 35.9453 17.2338 36.413 19.5763 36.4079H109.177C113.22 36.4059 117.137 35.0063 120.266 32.4464C123.395 29.8865 125.543 26.3236 126.345 22.3614C127.148 18.3991 126.556 14.2813 124.67 10.7056C122.784 7.12983 119.72 4.31607 115.996 2.74104C113.839 1.82859 111.519 1.3609 109.177 1.36598H19.5763ZM19.5763 0.0352783H109.177C114.177 0.0352783 118.972 2.02143 122.507 5.5568C126.042 9.09217 128.029 13.8872 128.029 18.8869C128.029 23.8867 126.042 28.6817 122.507 32.2171C118.972 35.7524 114.177 37.7386 109.177 37.7386H19.5763C14.5765 37.7386 9.7815 35.7524 6.24613 32.2171C2.71076 28.6817 0.724609 23.8867 0.724609 18.8869C0.724609 13.8872 2.71076 9.09217 6.24613 5.5568C9.7815 2.02143 14.5765 0.0352783 19.5763 0.0352783V0.0352783Z" fill="#0D0D0D"/>
<path d="M19.5755 7.79773H62.1581C65.0991 7.79773 67.9197 8.96605 69.9993 11.0457C72.0789 13.1253 73.2473 15.9459 73.2473 18.8869C73.2473 21.828 72.0789 24.6486 69.9993 26.7282C67.9197 28.8078 65.0991 29.9761 62.1581 29.9761H19.5755C16.6345 29.9761 13.8139 28.8078 11.7343 26.7282C9.65465 24.6486 8.48633 21.828 8.48633 18.8869C8.48633 15.9459 9.65465 13.1253 11.7343 11.0457C13.8139 8.96605 16.6345 7.79773 19.5755 7.79773V7.79773Z" fill="#030303"/>
<path d="M108.733 8.68481C110.751 8.68481 112.724 9.28316 114.401 10.4042C116.079 11.5252 117.387 13.1185 118.159 14.9827C118.931 16.8469 119.133 18.8982 118.739 20.8772C118.346 22.8562 117.374 24.6741 115.947 26.1008C114.52 27.5276 112.703 28.4993 110.724 28.8929C108.745 29.2866 106.693 29.0845 104.829 28.3124C102.965 27.5402 101.372 26.2326 100.251 24.5549C99.1296 22.8771 98.5312 20.9047 98.5312 18.8869C98.5312 16.1811 99.6061 13.5862 101.519 11.6729C103.433 9.75967 106.028 8.68481 108.733 8.68481V8.68481Z" fill="#0F0C0F"/>
<path d="M108.733 13.5641C109.786 13.5641 110.815 13.8763 111.69 14.4611C112.566 15.046 113.248 15.8773 113.651 16.85C114.053 17.8226 114.159 18.8928 113.954 19.9253C113.748 20.9579 113.241 21.9063 112.497 22.6507C111.752 23.3951 110.804 23.9021 109.771 24.1074C108.739 24.3128 107.669 24.2074 106.696 23.8046C105.723 23.4017 104.892 22.7194 104.307 21.8441C103.722 20.9688 103.41 19.9397 103.41 18.8869C103.41 17.4752 103.971 16.1213 104.969 15.1231C105.967 14.1249 107.321 13.5641 108.733 13.5641V13.5641Z" fill="url(#paint0_radial_531_14628)"/>
<defs>
<radialGradient id="paint0_radial_531_14628" cx="0" cy="0" r="1" gradientUnits="userSpaceOnUse" gradientTransform="translate(108.733 18.8869) scale(5.32282 5.32282)">
<stop stop-color="#48235C"/>
<stop offset="0.537" stop-color="#0B112F"/>
<stop offset="1"/>
</radialGradient>
</defs>
</svg>
