<svg width="1440" height="1595" viewBox="0 0 1440 1595" fill="none" xmlns="http://www.w3.org/2000/svg">
<path opacity="0.05" fill-rule="evenodd" clip-rule="evenodd" d="M1436.83 1594.81H-0.00195312L-0.00195313 1589.15H-0.000418527L-0.000428707 1356.25H-0.00146455L-0.00146514 1350.6H-0.000428954L-0.000439135 1117.7H-0.000976264L-0.000976861 1112.05H-0.000439382L-0.000487983 879.142L-0.00048858 873.491H-0.000449809L-0.00045999 640.588H-0.000976264L-0.000976861 634.936H-0.000460237L-0.000470418 402.033H-0.000976264L-0.000976861 396.382H-0.000470665L-0.000487983 0.195435H5.65079L5.6508 157.827H239.058V0.195435H244.709V157.827H478.117L478.117 0.195435H483.768L483.768 157.827H717.171V0.195435H722.823V157.827H956.234V0.195435H961.885V157.827H1195.29V0.195435H1200.94V157.827H1434.35V0.195435H1440V1593.4H1436.83V1594.81ZM1434.35 1589.15H1200.94V1356.25H1434.35V1589.15ZM1434.35 1350.6H1200.94V1117.7H1434.35V1350.6ZM1434.35 1112.05H1200.94V879.142H1434.35V1112.05ZM1434.35 873.491H1200.94V640.588H1434.35V873.491ZM1434.35 634.936H1200.94V402.033H1434.35V634.936ZM1434.35 396.382H1200.94V163.478H1434.35V396.382ZM1195.29 163.478V396.382H961.885V163.478H1195.29ZM956.234 163.478V396.382H722.823V163.478H956.234ZM717.171 163.478V396.382H483.768V163.478H717.171ZM478.117 163.478V396.382H244.709L244.709 163.478H478.117ZM239.058 163.478L239.058 396.382H5.65081L5.6508 163.478H239.058ZM5.65081 402.033H239.058V634.936H5.65082L5.65081 402.033ZM5.65082 640.588H239.058L239.058 873.491H5.65083L5.65082 640.588ZM5.65083 879.142H239.058V1112.05H5.65084L5.65083 879.142ZM5.65084 1117.7H239.058L239.058 1350.6H5.65085L5.65084 1117.7ZM5.65085 1356.25H239.058V1589.15H5.65086L5.65085 1356.25ZM244.709 1589.15V1356.25H478.117V1589.15H244.709ZM483.768 1589.15V1356.25H717.171V1589.15H483.768ZM722.823 1589.15V1356.25H956.234V1589.15H722.823ZM961.885 1589.15V1356.25H1195.29V1589.15H961.885ZM1195.29 1350.6H961.885V1117.7H1195.29V1350.6ZM1195.29 1112.05H961.885V879.142L1195.29 879.142V1112.05ZM1195.29 873.491L961.885 873.491L961.885 640.588L1195.29 640.588V873.491ZM1195.29 634.936L961.885 634.936L961.885 402.033H1195.29V634.936ZM956.234 402.033L956.234 634.936H722.823L722.823 402.033H956.234ZM717.171 402.033L717.171 634.936H483.768V402.033H717.171ZM478.117 402.033V634.936H244.709V402.033H478.117ZM244.709 640.588H478.117L478.117 873.491H244.709L244.709 640.588ZM244.709 879.142H478.117L478.117 1112.05H244.709V879.142ZM244.709 1117.7H478.117V1350.6H244.709L244.709 1117.7ZM483.768 1350.6V1117.7H717.171V1350.6H483.768ZM722.823 1350.6V1117.7H956.234V1350.6H722.823ZM956.234 1112.05H722.823V879.142H956.234V1112.05ZM956.234 873.491H722.823L722.823 640.588H956.234L956.234 873.491ZM717.171 640.588L717.171 873.491H483.768L483.768 640.588H717.171ZM483.768 879.142H717.171V1112.05H483.768L483.768 879.142Z" fill="black"/>
</svg>
