<svg width="64" height="64" viewBox="0 0 64 64" fill="none" xmlns="http://www.w3.org/2000/svg">
<g clip-path="url(#clip0_531_12157)">
<rect width="64" height="64" rx="12.8" fill="#44D62C"/>
<rect width="64" height="64" fill="#44D62C"/>
<path opacity="0.6" fill-rule="evenodd" clip-rule="evenodd" d="M44 0H44.25V4.25H59.5732L59.6616 4.16161L59.8384 4.33839L59.75 4.42677V19.75H64V20H59.75V31.875H64V32.125H59.75V44H64V44.25H59.75V59.5732L59.8384 59.6616L59.6616 59.8384L59.5732 59.75H44.25V64H44V59.75H32.125V64H31.875V59.75H20V64H19.75V59.75H4.42677L4.33838 59.8384L4.16161 59.6616L4.25 59.5732V44.25H0V44H4.25V32.125H0V31.875H4.25V20H0V19.75H4.25V4.42678L4.16161 4.33839L4.33838 4.16161L4.42677 4.25H19.75V0H20V4.25H31.875V0H32.125V4.25H44V0ZM4.50028 32.125C4.51922 36.3811 5.50501 40.4089 7.24935 44H19.6079C16.6277 40.923 14.7832 36.7393 14.7504 32.125H4.50028ZM14.7504 31.875H4.50028C4.51922 27.6189 5.50501 23.5911 7.24935 20H19.6079C16.6277 23.077 14.7832 27.2607 14.7504 31.875ZM15.0005 32.125C15.0331 36.6523 16.8354 40.7589 19.75 43.7872V32.125H15.0005ZM19.75 31.875H15.0005C15.0331 27.3477 16.8354 23.2411 19.75 20.2128V31.875ZM20 32.125V43.8232L31.6982 32.125H20ZM31.6982 31.875H20V20.1768L31.6982 31.875ZM32.3018 32.125L44 43.8232V32.125H32.3018ZM44 31.875H32.3018L44 20.1768V31.875ZM44.25 32.125V43.7872C47.1646 40.7589 48.9669 36.6523 48.9995 32.125H44.25ZM48.9995 31.875H44.25V20.2128C47.1646 23.2411 48.9669 27.3477 48.9995 31.875ZM49.2496 32.125C49.2168 36.7393 47.3723 40.923 44.3921 44H56.7507C58.495 40.4089 59.4808 36.3811 59.4997 32.125H49.2496ZM59.4997 31.875H49.2496C49.2168 27.2607 47.3723 23.077 44.3921 20H56.7507C58.495 23.5911 59.4808 27.6189 59.4997 31.875ZM44 56.7507C40.4089 58.495 36.3811 59.4808 32.125 59.4997V49.2496C36.7393 49.2168 40.923 47.3723 44 44.3921V56.7507ZM43.7872 44.25C40.7589 47.1646 36.6523 48.9669 32.125 48.9995V44.25H43.7872ZM31.875 48.9995V44.25H20.2128C23.2411 47.1646 27.3477 48.9669 31.875 48.9995ZM43.8232 44H32.125V32.3018L43.8232 44ZM31.875 44V32.3018L20.1768 44H31.875ZM43.8232 20L32.125 31.6982V20H43.8232ZM31.875 31.6982V20H20.1768L31.875 31.6982ZM43.7872 19.75H32.125V15.0005C36.6523 15.0331 40.7589 16.8354 43.7872 19.75ZM31.875 19.75V15.0005C27.3477 15.0331 23.2411 16.8354 20.2128 19.75H31.875ZM44 19.6079C40.923 16.6277 36.7393 14.7832 32.125 14.7504V4.50028C36.3811 4.51922 40.4089 5.50501 44 7.24935V19.6079ZM31.875 14.7504V4.50028C27.6189 4.51922 23.5911 5.50501 20 7.24935V19.6079C23.077 16.6277 27.2607 14.7832 31.875 14.7504ZM31.875 59.4997V49.2496C27.2607 49.2168 23.077 47.3723 20 44.3921V56.7507C23.5911 58.495 27.6189 59.4808 31.875 59.4997ZM4.5 20V28.2591C4.89371 25.3373 5.74211 22.5598 6.97165 20H4.5ZM7.09328 19.75H4.5V4.67678L12.2896 12.4664C10.1884 14.5865 8.42679 17.0438 7.09328 19.75ZM19.5732 19.75H7.37235C8.68701 17.1121 10.413 14.7151 12.4664 12.6432L19.5732 19.75ZM56.6276 19.75H44.4268L51.5336 12.6431C53.587 14.7151 55.313 17.1121 56.6276 19.75ZM57.0284 20C58.2579 22.5598 59.1063 25.3373 59.5 28.2591V20H57.0284ZM59.5 19.75H56.9067C55.5732 17.0438 53.8116 14.5865 51.7104 12.4664L59.5 4.67677V19.75ZM59.5 35.7409V44H57.0284C58.2579 41.4402 59.1063 38.6627 59.5 35.7409ZM56.6276 44.25H44.4268L51.5336 51.3569C53.587 49.2849 55.313 46.8879 56.6276 44.25ZM19.5732 44.25H7.37236C8.68701 46.8879 10.413 49.2849 12.4664 51.3568L19.5732 44.25ZM4.5 35.7409C4.89371 38.6627 5.74211 41.4402 6.97165 44H4.5V35.7409ZM7.09328 44.25H4.5V59.3232L12.2896 51.5336C10.1884 49.4135 8.42679 46.9562 7.09328 44.25ZM59.5 44.25H56.9067C55.5732 46.9562 53.8116 49.4135 51.7104 51.5336L59.5 59.3232V44.25ZM19.75 4.5H4.67677L12.4664 12.2896C14.5865 10.1884 17.0438 8.4268 19.75 7.09328V4.5ZM20 6.97165V4.5H28.2591C25.3373 4.89371 22.5598 5.74211 20 6.97165ZM19.75 7.37236C17.1121 8.68701 14.7151 10.413 12.6431 12.4664L19.75 19.5732V7.37236ZM19.75 44.4268V56.6276C17.1121 55.313 14.7151 53.587 12.6431 51.5336L19.75 44.4268ZM19.75 56.9067C17.0438 55.5732 14.5865 53.8116 12.4664 51.7104L4.67677 59.5H19.75V56.9067ZM20 59.5V57.0284C22.5598 58.2579 25.3373 59.1063 28.2591 59.5H20ZM35.7409 4.5H44V6.97165C41.4402 5.74211 38.6627 4.89371 35.7409 4.5ZM44.25 4.5V7.09328C46.9562 8.42679 49.4135 10.1884 51.5336 12.2896L59.3232 4.5H44.25ZM44.25 7.37236V19.5732L51.3568 12.4664C49.2849 10.413 46.8879 8.68701 44.25 7.37236ZM44.25 44.4268V56.6276C46.8879 55.313 49.2849 53.587 51.3568 51.5336L44.25 44.4268ZM35.7409 59.5C38.6627 59.1063 41.4402 58.2579 44 57.0284V59.5H35.7409ZM44.25 56.9067V59.5H59.3232L51.5336 51.7104C49.4135 53.8116 46.9562 55.5732 44.25 56.9067Z" fill="white" fill-opacity="0.5"/>
<g clip-path="url(#clip1_531_12157)">
<path d="M16.6061 34.0318C16.6061 33.2925 15.7384 33.1077 14.6229 33.0461C12.2679 32.8613 10.7185 32.0604 10.7185 29.7193C10.6566 25.0988 19.0231 25.0988 18.9611 29.7193H16.3582C16.3582 28.3023 13.4454 28.4256 13.3834 29.6577C13.3215 30.4586 14.1271 30.6434 15.1187 30.7666C17.2878 31.0131 19.3949 31.3211 19.3949 34.0318C19.3949 38.5291 10.5946 38.6523 10.6566 33.9086H13.3215C13.1975 35.264 16.6061 35.264 16.6061 34.0318ZM45.4859 40.6238H49.5142L50.3199 41.4247V45.5523L49.5142 46.4148H45.4859V40.6238ZM50.8156 38.1595H42.6351V48.9407H50.8776L53.2326 46.5997V40.5006L50.8156 38.1595ZM38.9786 46.4148H34.0827V40.6238H38.9786V46.4148ZM41.8294 38.1595H31.2939V48.9407H41.8294V38.1595ZM27.5135 46.4148H22.6175V40.6238H27.5135V46.4148ZM30.3643 38.1595H19.7667V48.9407H30.3023V38.1595H30.3643ZM14.313 45.4291V48.9407H11.5242V38.1595H19.023V40.6238H14.375V42.9648H18.5892V45.4291H14.313ZM52.9847 28.9184H48.2747V30.4586H52.6749V32.9229H48.2747V34.8327H53.1707V37.297H45.4859V26.4541H52.9847V28.9184ZM40.3421 34.7095H44.6802V37.1738H37.5532V26.4541H40.3421V34.7095ZM36.6856 34.7711V37.1738H31.1699V34.7711H32.5334V28.7952H31.2939V26.4541H36.5617V28.8568H35.3222V34.8327H36.6856V34.7711ZM29.3727 26.3925H30.3643V37.1738H27.5135V32.3684L25.2204 34.7711H24.9106L22.6175 32.3684V37.1738H19.7667V26.3925H20.7583L24.9725 31.0747L29.3727 26.3925Z" fill="white"/>
<path d="M11.0234 15.1191V24.8531H52.6699V15.1191H11.0234ZM13.6883 21.3415C14.3081 21.3415 14.8658 21.3415 15.4856 21.3415C15.4856 22.2656 17.7786 22.2656 17.7786 21.4031C17.7786 20.9102 17.1589 20.787 16.4771 20.7254C14.8658 20.6022 13.8742 20.0477 13.8123 18.5075C13.7503 15.3656 19.3899 15.3656 19.3899 18.5075C18.7082 18.5075 18.2744 18.5075 17.5927 18.5075C17.5927 17.5218 15.6095 17.645 15.5475 18.5075C15.4856 19.062 16.0433 19.1852 16.725 19.2468C18.1504 19.4316 19.5758 19.6165 19.5758 21.4031C19.5758 24.4834 13.6883 24.545 13.6883 21.3415ZM27.4465 21.1566C27.4465 22.7584 26.0831 23.6825 24.5957 23.6825C23.1083 23.6825 21.6829 22.7584 21.6829 21.1566V16.3513C22.2407 16.3513 22.8604 16.3513 23.4802 16.3513V21.1566C23.4802 21.7727 24.038 22.0191 24.5957 22.0191C25.1535 22.0191 25.7112 21.7111 25.7112 21.1566V16.3513C26.331 16.3513 26.8888 16.3513 27.5085 16.3513V21.1566H27.4465ZM29.4917 21.3415C30.1114 21.3415 30.6692 21.3415 31.2889 21.3415C31.2889 22.2656 33.5819 22.2656 33.5819 21.4031C33.5819 20.9102 32.9622 20.787 32.2805 20.7254C30.6692 20.6022 29.6776 20.0477 29.6156 18.5075C29.5536 15.3656 35.1933 15.3656 35.1933 18.5075C34.5115 18.5075 34.0777 18.5075 33.396 18.5075C33.396 17.5218 31.4128 17.645 31.3509 18.5075C31.2889 19.062 31.8467 19.1852 32.5284 19.2468C33.9538 19.4316 35.3792 19.6165 35.3792 21.4031C35.3792 24.4834 29.4917 24.545 29.4917 21.3415ZM43.6217 23.5593C43.002 23.5593 42.3822 23.5593 41.7005 23.5593V20.6638H39.4694V23.5593C38.8497 23.5593 38.168 23.5593 37.5483 23.5593V16.3513C38.168 16.3513 38.7877 16.3513 39.4694 16.3513V19.0004H41.7005V16.3513C42.3202 16.3513 42.94 16.3513 43.6217 16.3513V23.5593ZM49.3233 23.5593H45.6049V21.9575H46.5345V17.9531H45.6668V16.3513H49.1993V17.9531H48.3317V21.9575H49.2613V23.5593H49.3233Z" fill="white"/>
</g>
</g>
<defs>
<clipPath id="clip0_531_12157">
<rect width="64" height="64" rx="12.8" fill="white"/>
</clipPath>
<clipPath id="clip1_531_12157">
<rect width="42.5" height="34.5" fill="white" transform="translate(10.75 14.75)"/>
</clipPath>
</defs>
</svg>
